<svg xmlns="http://www.w3.org/2000/svg" viewBox="0 0 512 512">
  <defs>
    <style>
      .primary { fill: #ef4444; } /* Matches text-primary / red-500 */
    </style>
  </defs>
  
  <!-- The ampersand centered and styled: Playfair Display, Bold, Italic -->
  <text 
    x="50%" 
    y="65%" 
    dominant-baseline="middle" 
    text-anchor="middle" 
    font-family="'Playfair Display', serif" 
    font-weight="900" 
    font-style="italic" 
    font-size="440" 
    class="primary"
  >&amp;</text>

  <!-- The Crown positioned over the ampersand, matching the navbar's -rotate-[15deg] and offset -->
  <g transform="translate(135, 15) scale(0.35) rotate(-15, 256, 256)">
    <path class="primary" d="M124.536,178.991c12.892,0,23.33-10.438,23.33-23.322s-10.438-23.322-23.33-23.322 c-12.876,0-23.314,10.438-23.314,23.322S111.66,178.991,124.536,178.991z"/>
    <path class="primary" d="M46.66,211.508c0-12.883-10.454-23.321-23.33-23.321C10.454,188.187,0,198.625,0,211.508 c0,12.884,10.454,23.322,23.33,23.322C36.206,234.83,46.66,224.392,46.66,211.508z"/>
    <path class="primary" d="M387.464,178.991c12.892,0,23.33-10.438,23.33-23.322s-10.438-23.322-23.33-23.322 c-12.876,0-23.314,10.438-23.314,23.322S374.588,178.991,387.464,178.991z"/>
    <path class="primary" d="M488.686,188.187c-12.892,0-23.33,10.438-23.33,23.321c0,12.884,10.454,23.322,23.33,23.322 c12.876,0,23.314-10.438,23.314-23.322C512,198.625,501.562,188.187,488.686,188.187z"/>
    <rect class="primary" x="80.101" y="399.236" width="351.815" height="36.296"/>
    <path class="primary" d="M400.193,272.999c-33.932-23.322-14.839-82.694-14.839-82.694l-19.388-5.661 c-40.721,77.385-100.608,73.761-95.937-12.728v-27.715h33.686v-28.05h-33.686V76.468h-28.058v39.682h-33.702v28.05h33.702v27.715 c4.679,86.49-55.2,90.113-95.938,12.728l-19.371,5.661c0,0,19.076,59.372-14.839,82.694 c-33.932,23.321-63.626-33.923-63.626-33.923l-19.076,8.474L82.13,374.777H429.87l53.008-127.226l-19.076-8.474 C463.802,239.076,434.125,296.32,400.193,272.999z"/>
  </g>
</svg>
